<svg xmlns:dc="http://purl.org/dc/elements/1.1/" xmlns:cc="http://creativecommons.org/ns#" xmlns:rdf="http://www.w3.org/1999/02/22-rdf-syntax-ns#" xmlns:svg="http://www.w3.org/2000/svg" xmlns="http://www.w3.org/2000/svg" xmlns:xlink="http://www.w3.org/1999/xlink" id="svg673258" viewBox="0 0 1024 768" height="768px" width="1024px" version="1.1">
  <metadata id="metadata673264">
    <rdf:rdf>
      <cc:work rdf:about="">
        <dc:format>image/svg+xml</dc:format>
        <dc:type rdf:resource="http://purl.org/dc/dcmitype/StillImage"></dc:type>
      </cc:work>
    </rdf:rdf>
  </metadata>
  <defs id="defs673262"></defs>
  <linearGradient spreadMethod="pad" y2="30%" x2="-10%" y1="120%" x1="30%" id="3d_gradient2-logo-1f6b255c-326a-471f-9004-2b92c8689a46">
    <stop id="stop673239" stop-opacity="1" stop-color="#ffffff" offset="0%"></stop>
    <stop id="stop673241" stop-opacity="1" stop-color="#000000" offset="100%"></stop>
  </linearGradient>
  <linearGradient gradientTransform="rotate(-30)" spreadMethod="pad" y2="30%" x2="-10%" y1="120%" x1="30%" id="3d_gradient3-logo-1f6b255c-326a-471f-9004-2b92c8689a46">
    <stop id="stop673244" stop-opacity="1" stop-color="#ffffff" offset="0%"></stop>
    <stop id="stop673246" stop-opacity="1" stop-color="#cccccc" offset="50%"></stop>
    <stop id="stop673248" stop-opacity="1" stop-color="#000000" offset="100%"></stop>
  </linearGradient>
  <g id="logo-group">
    <image xlink:href="" id="container" x="272" y="144" width="480" height="480" transform="translate(0 0)" style="display: none;"></image>
    <g id="logo-center" transform="translate(0 0)">
      <image xlink:href="" id="icon_container" x="0" y="0" style="display: none;"></image>
      <g id="slogan" style="font-style:normal;font-weight:400;font-size:32px;line-height:1;font-family:Farsan;font-variant-ligatures:none;text-align:center;text-anchor:middle" transform="translate(0 0)"></g>
      <g id="title" style="font-style:normal;font-weight:normal;font-size:72px;line-height:1;font-family:'Brandmark Sans 16 Color Shadow';font-variant-ligatures:normal;text-align:center;text-anchor:middle" transform="translate(0 0)">
        <g id="path673267" aria-label="S" transform="translate(0 333.28) translate(271.5045 -1.1199999999999974) scale(2) translate(-401.62794 51.12)"> <path class="c1" d="M99.6,89.1c0,6.2,19.3,4.9,19.3,19.7c0,16-18.9,17.2-23.2,17.2c-2.3,0-10-0.7-14.8-2.7l1.2-13.8 c4.9,3,9.7,5.3,13.8,5.3c4.2,0,5.7-2,5.7-3.6c0-7.8-18.7-4-18.7-20.2c0-12.8,14.2-16.9,21.6-16.9c7.1,0,10.3,0.8,14.6,1.9 l-1.2,13.8c0,0-7.6-4.5-12.3-4.5C102,85.3,99.6,86.8,99.6,89.1z" transform="translate(320.72794 -125.22)" stroke-width="0" stroke-linejoin="miter" stroke-miterlimit="2" fill="#1a1a22" stroke="#1a1a22"></path> <linearGradient id="4e98d4d1-f409-4eac-8f96-bc3159356a2d" gradientUnits="userSpaceOnUse" x1="99.93118" y1="-481.29999" x2="99.93118" y2="-496.14978" gradientTransform="matrix(1 0 0 -1 0 -396)"> <stop offset="0.2228" style="stop-color:#000000;stop-opacity:0.8"></stop> <stop offset="0.5404" style="stop-color:#000000;stop-opacity:0.2925"></stop> <stop offset="0.7684" style="stop-color:#000000;stop-opacity:0"></stop> </linearGradient> <path class="highlight" fill="url(#4e98d4d1-f409-4eac-8f96-bc3159356a2d)" d="M115.7,100.1H86c0,0-9.5-14.8,14.7-14.8h4.9c-3.6,0-6,1.5-6,3.8C99.6,93.7,110.2,94.2,115.7,100.1z" transform="translate(320.72794 -125.22)" stroke-width="0" stroke-linejoin="miter" stroke-miterlimit="2" opacity="0.94"></path> </g>
        <g id="path673269" aria-label="L" transform="translate(0 333.28) translate(364.3427399999999 0.3200000000000003) scale(2) translate(-443.04706 50.4)"> <path class="c1" d="M96.9,114.4h21.7l-1,10.8H95.9L96.9,114.4l-1,10.8H81.5L86,74.8h14.4L96.9,114.4z" transform="translate(361.54706 -125.2)" stroke-width="0" stroke-linejoin="miter" stroke-miterlimit="2" fill="#1a1a22" stroke="#1a1a22"></path> <linearGradient id="36122cc2-9c89-44c3-9eca-11d67cb0f167" gradientUnits="userSpaceOnUse" x1="96.24004" y1="-513.86749" x2="118.12885" y2="-517.72705" gradientTransform="matrix(1 0 0 -1 0 -396)"> <stop offset="0.00194" style="stop-color:#000000;stop-opacity:0.8"></stop> <stop offset="0.6213" style="stop-color:#000000;stop-opacity:0"></stop> </linearGradient> <path class="highlight" fill="url(#36122cc2-9c89-44c3-9eca-11d67cb0f167)" d="M117.5,125.2H95.9l0.9-10.8h21.7L117.5,125.2z" transform="translate(361.54706 -125.2)" stroke-width="0" stroke-linejoin="miter" stroke-miterlimit="2" opacity="0.94"></path> </g>
        <g id="path673271" aria-label="A" transform="translate(0 333.28) translate(447.5937399999999 0.3200000000000003) scale(2) translate(-479.67256 50.4)"> <path class="c1" d="M107.9,74.8H101h-6.5l-19.8,50.4H90l3.2-8.9h15.5l1.6,8.9h15l-10.8-50.4C114.5,74.8,107.9,74.8,107.9,74.8z M97,105.5l6.4-18l3.3,18H97z" transform="translate(404.97256 -125.2)" stroke-width="0" stroke-linejoin="miter" stroke-miterlimit="2" fill="#1a1a22" stroke="#1a1a22"></path> <linearGradient id="f45080a6-e28e-422e-b907-20e239aee470" gradientUnits="userSpaceOnUse" x1="85.41597" y1="713.57141" x2="112.23496" y2="706.38531" gradientTransform="matrix(1 0 0 1 0 -598)"> <stop offset="0.2304" style="stop-color:#000000;stop-opacity:0.8"></stop> <stop offset="0.6213" style="stop-color:#000000;stop-opacity:0"></stop> </linearGradient> <path class="highlight" fill="url(#f45080a6-e28e-422e-b907-20e239aee470)" d="M108.7,116.3H93.2l3.8-10.8h9.7L108.7,116.3z" transform="translate(404.97256 -125.2)" stroke-width="0" stroke-linejoin="miter" stroke-miterlimit="2" opacity="0.94"></path> </g>
        <g id="path673273" aria-label="S" transform="translate(0 333.28) translate(564.4732399999999 -1.1199999999999974) scale(2) translate(-533.11231 51.12)"> <path class="c1" d="M99.6,89.1c0,6.2,19.3,4.9,19.3,19.7c0,16-18.9,17.2-23.2,17.2c-2.3,0-10-0.7-14.8-2.7l1.2-13.8 c4.9,3,9.7,5.3,13.8,5.3c4.2,0,5.7-2,5.7-3.6c0-7.8-18.7-4-18.7-20.2c0-12.8,14.2-16.9,21.6-16.9c7.1,0,10.3,0.8,14.6,1.9 l-1.2,13.8c0,0-7.6-4.5-12.3-4.5C102,85.3,99.6,86.8,99.6,89.1z" transform="translate(452.21231 -125.22)" stroke-width="0" stroke-linejoin="miter" stroke-miterlimit="2" fill="#1a1a22" stroke="#1a1a22"></path> <linearGradient id="2f88f2c1-2eb8-4c4f-898f-328400c316e0" gradientUnits="userSpaceOnUse" x1="99.93118" y1="-481.29999" x2="99.93118" y2="-496.14978" gradientTransform="matrix(1 0 0 -1 0 -396)"> <stop offset="0.2228" style="stop-color:#000000;stop-opacity:0.8"></stop> <stop offset="0.5404" style="stop-color:#000000;stop-opacity:0.2925"></stop> <stop offset="0.7684" style="stop-color:#000000;stop-opacity:0"></stop> </linearGradient> <path class="highlight" fill="url(#2f88f2c1-2eb8-4c4f-898f-328400c316e0)" d="M115.7,100.1H86c0,0-9.5-14.8,14.7-14.8h4.9c-3.6,0-6,1.5-6,3.8C99.6,93.7,110.2,94.2,115.7,100.1z" transform="translate(452.21231 -125.22)" stroke-width="0" stroke-linejoin="miter" stroke-miterlimit="2" opacity="0.94"></path> </g>
        <g id="path673275" aria-label="H" transform="translate(0 333.28) translate(657.3115 0.3200000000000003) scale(2) translate(-574.53144 50.4)"> <path class="c1" d="M109.4,74.8h14.4l-4.5,50.4h-14.4l1.8-19.8H92.4l-1.8,19.8H76.2l4.5-50.4h14.4l-1.8,19.8h14.3L109.4,74.8z" transform="translate(498.33144 -125.2)" stroke-width="0" stroke-linejoin="miter" stroke-miterlimit="2" fill="#1a1a22" stroke="#1a1a22"></path> <linearGradient id="c856484d-8001-437a-b5d2-d662b83a7c3c" gradientUnits="userSpaceOnUse" x1="92.60954" y1="-494.69684" x2="107.39044" y2="-497.30316" gradientTransform="matrix(1 0 0 -1 0 -396)"> <stop offset="0.00194" style="stop-color:#000000;stop-opacity:0.8"></stop> <stop offset="0.6213" style="stop-color:#000000;stop-opacity:0"></stop> </linearGradient> <path class="highlight" fill="url(#c856484d-8001-437a-b5d2-d662b83a7c3c)" d="M107.6,94.6l-1,10.8H92.4l1-10.8H107.6z" transform="translate(498.33144 -125.2)" stroke-width="0" stroke-linejoin="miter" stroke-miterlimit="2" opacity="0.94"></path> </g>
           </g>
      <image xlink:href="" id="icon" x="0" y="0" style="display: none;"></image>
    </g>
  </g>
</svg>